<svg xmlns="http://www.w3.org/2000/svg" viewBox="0 0 403.63 243.54"><defs><style>.cls-1{fill:#399195;}.cls-2{fill:#14616b;}.cls-3{fill:#9ed4d1;}.cls-4{fill:#64c0b8;}</style></defs><g id="Livello_2" data-name="Livello 2"><g id="Livello_3" data-name="Livello 3"><path class="cls-1" d="M197.2,27.69a40.51,40.51,0,0,1,4.47-5.77,64.17,64.17,0,0,1,14-12.59,59.46,59.46,0,0,1,15.72-7.12A55.56,55.56,0,0,1,248.52,0a58.61,58.61,0,0,1,49.15,30.84,54.21,54.21,0,0,0-80.49,3.66c-.61.74-1.2,1.48-1.8,2.22-.46.56-.93,1.1-1.4,1.65a14.23,14.23,0,0,1-3.1,2.9,10,10,0,0,1-3.44,1.37,10.12,10.12,0,0,1-3.64,0,10,10,0,0,1-3.45-1.31A10.12,10.12,0,0,1,198.53,40a10,10,0,0,1-2.9-6.92A10.33,10.33,0,0,1,197.2,27.69Z" transform="translate(-3.66)"/><path class="cls-2" d="M166,22.73a41.11,41.11,0,0,0-58.13,37.42,39.35,39.35,0,0,0,.22,4.22C109.45,78.79,120.17,99.2,137.5,118a141.21,141.21,0,0,0,21.14,19l1,.69a12.78,12.78,0,0,1,11.85-17.49,13.64,13.64,0,0,1,2.33.21l-.3-.21a146.17,146.17,0,0,1-17.19-14.14,121.22,121.22,0,0,1-20.63-25.41c-6.1-10.23-9.36-20.88-5.47-32.54a37.78,37.78,0,0,1,18.16-21.45,34.81,34.81,0,0,1,16.06-4c.54,0,1.07,0,1.6,0Z" transform="translate(-3.66)"/><path class="cls-3" d="M299.66,49.3a1.44,1.44,0,0,0,.36-1.42,41.12,41.12,0,0,0-56.27-25.15v0c.53,0,1.06,0,1.6,0a34.81,34.81,0,0,1,16.06,4,37.78,37.78,0,0,1,18.16,21.45c2.67,8,2,15.53-.7,22.78l10.44-11.16Z" transform="translate(-3.66)"/><path class="cls-4" d="M224.12,159.58,231,153.5A19.13,19.13,0,0,1,220,156.92c-6,0-11.36-3.2-15.61-7.16-5.25-4.89-10.43-9.87-15.65-14.79q-3.92-3.71-7.85-7.39c-2.26-2.12-4.52-3.66-7.75-3.66-5.48,0-9.61,3.51-9.61,9,0,5.31,4.25,9.54,7.75,13l13.79,13.53a27.82,27.82,0,0,0,39,.19" transform="translate(-3.66)"/></g><g id="Livello_2-2" data-name="Livello 2"><path class="cls-4" d="M212.28,27.69a40.51,40.51,0,0,0-4.47-5.77,64,64,0,0,0-14-12.59,59.4,59.4,0,0,0-15.71-7.12A55.56,55.56,0,0,0,161,0a58.59,58.59,0,0,0-49.15,30.84,54.21,54.21,0,0,1,80.49,3.66l1.8,2.22c.46.56.93,1.1,1.4,1.65a14.23,14.23,0,0,0,3.1,2.9A10,10,0,0,0,202,42.67a10.12,10.12,0,0,0,3.64,0A9.9,9.9,0,0,0,213.85,33,10.33,10.33,0,0,0,212.28,27.69Z" transform="translate(-3.66)"/><path class="cls-1" d="M313.25,68.24a17,17,0,0,0-22.36-1.92l-86.46,83.44c4.25,4,9.63,7.15,15.61,7.15A19.12,19.12,0,0,0,231,153.5l82.28-85.26" transform="translate(-3.66)"/><path class="cls-2" d="M238.11,76H217.56a1.41,1.41,0,0,1-1.42-1.41V54.05a1.41,1.41,0,0,0-1.42-1.42H194.88a1.42,1.42,0,0,0-1.42,1.42V74.6A1.41,1.41,0,0,1,192.05,76H171.49a1.42,1.42,0,0,0-1.41,1.42V97.27a1.41,1.41,0,0,0,1.41,1.42h20.56a1.42,1.42,0,0,1,1.41,1.42v20.55a1.43,1.43,0,0,0,1.42,1.42h19.84a1.42,1.42,0,0,0,1.42-1.42V100.11a1.42,1.42,0,0,1,1.42-1.42h20.55a1.42,1.42,0,0,0,1.42-1.42V77.43A1.43,1.43,0,0,0,238.11,76Z" transform="translate(-3.66)"/><rect class="cls-3" x="244.97" y="140.08" width="7.94" height="7.94" rx="1.42"/><rect class="cls-3" x="244.97" y="151.44" width="7.94" height="7.94" rx="1.42"/><rect class="cls-3" x="257.1" y="140.08" width="7.94" height="7.94" rx="1.42"/><rect class="cls-3" x="257.1" y="151.44" width="7.94" height="7.94" rx="1.42"/><rect class="cls-3" x="257.1" y="128.71" width="7.94" height="7.94" rx="1.42"/><rect class="cls-1" x="269.23" y="128.71" width="7.94" height="7.94" rx="1.42"/><rect class="cls-3" x="281.36" y="128.71" width="7.94" height="7.94" rx="1.42"/><rect class="cls-3" x="269.23" y="140.08" width="7.94" height="7.94" rx="1.42"/><rect class="cls-3" x="269.74" y="151.44" width="7.94" height="7.94" rx="1.42"/><rect class="cls-3" x="281.36" y="140.08" width="7.94" height="7.94" rx="1.42"/><rect class="cls-3" x="280.43" y="105.31" width="5.67" height="11.34" rx="2.83"/><path class="cls-3" d="M244.38,145.87v16.82a.85.85,0,0,0,.85.85H296a.85.85,0,0,0,.85-.85V125.52a.85.85,0,0,0-.85-.85H264.73l12.84-13.42a.84.84,0,0,1,.62-.26h3a.85.85,0,0,1,.85.85v6a.85.85,0,0,0,.85.85h8a.85.85,0,0,0,.85-.85V111h3.71a5.6,5.6,0,0,1,5.58,5.62v45.79a5.6,5.6,0,0,1-5.58,5.62H246.1a5.6,5.6,0,0,1-5.57-5.62v-12.1a.86.86,0,0,1,.23-.59l3.68-3.83" transform="translate(-3.66)"/><path class="cls-2" d="M3.66,242.78V186H28l5.1,17.75c.43,1.52.93,3.54,1.48,6.06s1.11,5.21,1.66,8.09,1,5.65,1.51,8.3.81,4.9,1.06,6.72H35.92q.38-2.73,1-6.72c.45-2.65.94-5.42,1.49-8.3s1.09-5.58,1.64-8.09,1-4.54,1.46-6.06l5-17.75H70.92v56.75H55.38V220.84q0-1.93.09-5.16c.07-2.14.14-4.5.21-7.06s.15-5.14.21-7.73.1-5,.1-7.16h.87c-.45,2.41-1,4.92-1.56,7.52s-1.18,5.14-1.79,7.61-1.19,4.75-1.75,6.82-1,3.79-1.45,5.16l-6.59,21.94H30.93l-6.71-21.94q-.6-2.06-1.46-5.16c-.57-2.07-1.18-4.34-1.81-6.82s-1.25-5-1.85-7.61-1.14-5.11-1.62-7.52h1.11q0,3.27.09,7.16c.06,2.59.13,5.16.21,7.73s.15,4.92.21,7.06.1,3.87.1,5.16v21.94Z" transform="translate(-3.66)"/><path class="cls-2" d="M102.77,243.54A24.82,24.82,0,0,1,91,240.93a17.81,17.81,0,0,1-7.56-7.52,24.73,24.73,0,0,1-2.63-11.81,24.07,24.07,0,0,1,2.65-11.52A19,19,0,0,1,91,202.41a22.8,22.8,0,0,1,11.43-2.74,24.21,24.21,0,0,1,8.74,1.5,18.53,18.53,0,0,1,6.68,4.34,19.12,19.12,0,0,1,4.27,6.88,26.35,26.35,0,0,1,1.49,9.14V225h-38v-8.38h30.85l-7.16,1.76a11.06,11.06,0,0,0-.77-4.37,5.72,5.72,0,0,0-2.24-2.7,7.81,7.81,0,0,0-7.39,0A5.79,5.79,0,0,0,96.6,214a11.07,11.07,0,0,0-.76,4.37v6.09a10.75,10.75,0,0,0,.89,4.66,6,6,0,0,0,2.54,2.75,7.88,7.88,0,0,0,3.81.89,8.45,8.45,0,0,0,2.83-.44,6.37,6.37,0,0,0,2.19-1.25,5.15,5.15,0,0,0,1.37-2l13.49,2a15.33,15.33,0,0,1-3.77,6.61,18.21,18.21,0,0,1-6.84,4.32A27.79,27.79,0,0,1,102.77,243.54Z" transform="translate(-3.66)"/><path class="cls-2" d="M148.79,243.31a15.53,15.53,0,0,1-8.36-2.38,16.44,16.44,0,0,1-6.11-7.21A28.61,28.61,0,0,1,132,221.53q0-7.74,2.4-12.55a16.37,16.37,0,0,1,6.2-7.07,15.59,15.59,0,0,1,8-2.24,13.26,13.26,0,0,1,5.54,1.08,11.87,11.87,0,0,1,4,2.92,12.42,12.42,0,0,1,2.42,4h.23V186h15.31v56.75H161v-7h-.38a11.81,11.81,0,0,1-6.47,6.55A13.53,13.53,0,0,1,148.79,243.31Zm5.64-11.73a5.54,5.54,0,0,0,3.62-1.24,7.82,7.82,0,0,0,2.34-3.48,15.51,15.51,0,0,0,.82-5.33,15.91,15.91,0,0,0-.82-5.43,7.71,7.71,0,0,0-2.34-3.48,5.58,5.58,0,0,0-3.62-1.22,5.42,5.42,0,0,0-3.58,1.22,7.53,7.53,0,0,0-2.27,3.48,19.15,19.15,0,0,0,0,10.82,7.42,7.42,0,0,0,2.27,3.46A5.51,5.51,0,0,0,154.43,231.58Z" transform="translate(-3.66)"/><path class="cls-2" d="M187.81,242.78V200.2h15.31v42.58Zm7.62-46.92a7.57,7.57,0,0,1-5.34-2.06,6.69,6.69,0,0,1,0-9.92,8,8,0,0,1,10.67,0,6.67,6.67,0,0,1,0,9.92A7.55,7.55,0,0,1,195.43,195.86Z" transform="translate(-3.66)"/><path class="cls-4" d="M240.92,243.54a28.87,28.87,0,0,1-14-3.35,24.25,24.25,0,0,1-9.79-9.85q-3.6-6.48-3.6-15.9t3.66-16a24.53,24.53,0,0,1,9.86-9.85,28.8,28.8,0,0,1,13.83-3.33,32.08,32.08,0,0,1,9.77,1.43,23.87,23.87,0,0,1,7.86,4.17,21.26,21.26,0,0,1,5.49,6.74,25.12,25.12,0,0,1,2.62,9.14H251.05a10.21,10.21,0,0,0-1-3.31,8.19,8.19,0,0,0-4.88-4.19,12,12,0,0,0-3.83-.57,11.13,11.13,0,0,0-6.53,1.88,11.45,11.45,0,0,0-4.05,5.41,27.27,27.27,0,0,0,0,17.16,11,11,0,0,0,4.06,5.25,11.34,11.34,0,0,0,6.42,1.76,11.55,11.55,0,0,0,3.81-.58,9,9,0,0,0,2.93-1.63,8.37,8.37,0,0,0,2-2.56,10,10,0,0,0,1-3.31h15.62a21.61,21.61,0,0,1-2,7.39,24.09,24.09,0,0,1-4.95,7,24.58,24.58,0,0,1-7.92,5.16A28.28,28.28,0,0,1,240.92,243.54Z" transform="translate(-3.66)"/><path class="cls-4" d="M297.53,243.54a24,24,0,0,1-11.88-2.76,18.49,18.49,0,0,1-7.56-7.69,26.57,26.57,0,0,1,0-23,18.49,18.49,0,0,1,7.56-7.69,26.86,26.86,0,0,1,23.72,0,18.57,18.57,0,0,1,7.52,7.69,26.57,26.57,0,0,1,0,23,18.57,18.57,0,0,1-7.52,7.69A23.8,23.8,0,0,1,297.53,243.54Zm0-11.42a5,5,0,0,0,3.41-1.26,8,8,0,0,0,2.19-3.64,19,19,0,0,0,.76-5.69,18.64,18.64,0,0,0-.76-5.68,7.67,7.67,0,0,0-2.19-3.54,5.11,5.11,0,0,0-3.41-1.22,5.23,5.23,0,0,0-3.47,1.22,7.61,7.61,0,0,0-2.21,3.54,18.64,18.64,0,0,0-.76,5.68,19,19,0,0,0,.76,5.69,7.92,7.92,0,0,0,2.21,3.64A5.11,5.11,0,0,0,297.53,232.12Z" transform="translate(-3.66)"/><path class="cls-4" d="M329.65,242.78V200.2H344.5v8.15H345a12.08,12.08,0,0,1,3.68-6.61,9.05,9.05,0,0,1,5.92-2.07,13.2,13.2,0,0,1,2,.15,10.76,10.76,0,0,1,1.9.46v13a11.9,11.9,0,0,0-2.8-.59c-1.1-.11-2.05-.17-2.83-.17a8.1,8.1,0,0,0-4,1,7.16,7.16,0,0,0-2.8,2.82,8.58,8.58,0,0,0-1,4.24v22.17Z" transform="translate(-3.66)"/><path class="cls-4" d="M386.49,243.54a24.79,24.79,0,0,1-11.75-2.61,17.81,17.81,0,0,1-7.56-7.52,24.73,24.73,0,0,1-2.63-11.81,24,24,0,0,1,2.65-11.52,19,19,0,0,1,7.48-7.67,22.8,22.8,0,0,1,11.43-2.74,24.21,24.21,0,0,1,8.74,1.5,18.53,18.53,0,0,1,6.68,4.34,19.12,19.12,0,0,1,4.27,6.88,26.35,26.35,0,0,1,1.48,9.14V225h-38v-8.38h30.85L393,218.41a11.07,11.07,0,0,0-.76-4.37,5.78,5.78,0,0,0-2.24-2.7,7.81,7.81,0,0,0-7.39,0,5.79,5.79,0,0,0-2.25,2.7,11.07,11.07,0,0,0-.76,4.37v6.09a10.75,10.75,0,0,0,.89,4.66,6,6,0,0,0,2.54,2.75,7.87,7.87,0,0,0,3.8.89,8.51,8.51,0,0,0,2.84-.44,6.37,6.37,0,0,0,2.19-1.25,5.15,5.15,0,0,0,1.37-2l13.48,2a15.23,15.23,0,0,1-3.77,6.61,18.09,18.09,0,0,1-6.83,4.32A27.79,27.79,0,0,1,386.49,243.54Z" transform="translate(-3.66)"/></g></g></svg>